<?xml version="1.0" encoding="UTF-8"?>
<svg width="126px" height="191px" viewBox="0 0 126 191" version="1.1" xmlns="http://www.w3.org/2000/svg" xmlns:xlink="http://www.w3.org/1999/xlink">
    <!-- Generator: Sketch 47.1 (45422) - http://www.bohemiancoding.com/sketch -->
    <title>logo opacité</title>
    <desc>Created with Sketch.</desc>
    <defs></defs>
    <g id="Splash-screen" stroke="none" stroke-width="1" fill="none" fill-rule="evenodd" opacity="0.147588315">
        <g id="Splash-Screen" transform="translate(-125.000000, -239.000000)" fill="#3C3C3B">
            <g id="logo-opacité" transform="translate(125.000000, 239.000000)">
                <path d="M62.5559481,41.1902689 C52.8535807,41.1902689 44.9603608,49.0727607 44.9603608,58.7598426 C44.9603608,68.449023 52.8535807,76.3304656 62.5559481,76.3304656 C72.2572649,76.3304656 80.1494343,68.449023 80.1494343,58.7598426 C80.1494343,49.0727607 72.2572649,41.1902689 62.5559481,41.1902689 M62.5559481,79.0551869 C51.3501603,79.0551869 42.2329817,69.9504 42.2329817,58.7598426 C42.2329817,47.5703344 51.3501603,38.4665967 62.5559481,38.4665967 C73.7606854,38.4665967 82.8778639,47.5703344 82.8778639,58.7598426 C82.8778639,69.9504 73.7606854,79.0551869 62.5559481,79.0551869 Z M5.57578822,55.6964459 C8.65512107,55.6964459 11.1513663,58.1892984 11.1513663,61.2644459 C11.1513663,64.3395934 8.65512107,66.8313967 5.57578822,66.8313967 C2.49645538,66.8313967 0.000210121654,64.3395934 0.000210121654,61.2644459 C0.000210121654,58.1892984 2.49645538,55.6964459 5.57578822,55.6964459 Z M125.589398,61.2640262 C125.589398,64.340223 123.093152,66.8320262 120.01382,66.8320262 C119.953935,66.8320262 119.898253,66.8162885 119.837317,66.8141902 C118.746786,66.7795672 117.731898,66.4448787 116.885108,65.8730754 C115.409004,64.8711082 114.438242,63.1808787 114.438242,61.2640262 C114.438242,58.1888787 116.934487,55.6960262 120.01382,55.6960262 C123.093152,55.6960262 125.589398,58.1888787 125.589398,61.2640262 Z M67.9054353,98.6636328 C67.9054353,101.73983 65.4091901,104.232682 62.3298572,104.232682 C59.2505244,104.232682 56.7542791,101.73983 56.7542791,98.6636328 C56.7542791,95.5895344 59.2505244,93.096682 62.3298572,93.096682 C65.4091901,93.096682 67.9054353,95.5895344 67.9054353,98.6636328 Z M67.9054353,144.972984 C67.9054353,148.04918 65.4091901,150.540984 62.3298572,150.540984 C59.2505244,150.540984 56.7542791,148.04918 56.7542791,144.972984 C56.7542791,141.897836 59.2505244,139.404984 62.3298572,139.404984 C65.4091901,139.404984 67.9054353,141.897836 67.9054353,144.972984 Z M62.3301724,111.041652 C62.7724785,111.041652 63.2105821,111.017521 63.6413315,110.971357 L63.6434327,132.666308 C63.2116327,132.621193 62.7735291,132.594964 62.3301724,132.594964 C61.8500444,132.594964 61.3793719,132.629587 60.9139525,132.682046 L60.9139525,110.95457 C61.3793719,111.008079 61.8500444,111.041652 62.3301724,111.041652 Z M14.9301942,69.3592918 L52.3623163,91.3375213 C51.8233543,92.0677508 51.3579348,92.8535869 50.9870701,93.6908328 L12.8247752,71.2824393 C13.5990735,70.7232262 14.3050822,70.0790295 14.9301942,69.3592918 Z M11.1521018,72.302977 L55.6947407,134.535108 C54.9235942,135.027174 54.2039275,135.591633 53.5599047,136.23583 L8.49826526,73.2797639 C9.42805358,73.0541902 10.3168682,72.7257967 11.1521018,72.302977 Z M120.014135,48.8869508 C119.236685,48.8869508 118.478145,48.9666885 117.740618,49.1041311 C113.216699,22.5986885 89.8375134,2.77337705 62.7790973,2.77337705 C35.7238331,2.77337705 12.3435966,22.5965902 7.81862676,49.0999344 C7.09055523,48.9656393 6.34252214,48.8869508 5.5755781,48.8869508 C5.4106326,48.8869508 5.25094015,48.9058361 5.08704526,48.911082 C9.72232895,20.9693115 34.2929046,0.0486557377 62.7790973,0.0486557377 C91.26529,0.0486557377 115.834815,20.9693115 120.4722,48.9089836 C120.317761,48.9047869 120.167524,48.8869508 120.014135,48.8869508 Z M110.317546,68.9381508 C110.899583,69.6704787 111.564618,70.3377574 112.309499,70.9294951 L73.6439628,93.6327082 C73.2688956,92.7965115 72.8013749,92.0127738 72.2582105,91.286741 L110.317546,68.9381508 Z M113.697142,71.8807869 C114.498757,72.3550164 115.341344,72.748459 116.228058,73.0296393 L71.0329911,136.172459 C70.3837152,135.533508 69.6619473,134.973246 68.8865984,134.488525 L113.697142,71.8807869 Z" id="Combined-Shape"></path>
                <g id="typo" transform="translate(2.000000, 167.000000)">
                    <path d="M8.10863762,6.37471475 L5.04191207,6.37471475 L5.04191207,18.8788459 L8.13595343,18.8788459 C11.3434605,18.8788459 12.6262532,17.8496 12.6262532,12.5019279 C12.6262532,7.54455082 11.4264585,6.37471475 8.10863762,6.37471475 M8.22000209,23.0556328 L0.328883358,23.0556328 L0.328883358,2.17064918 L8.16431985,2.17064918 C14.8010123,2.17064918 17.5620109,5.31714098 17.5620109,12.5302557 C17.5620109,20.0770098 14.4112366,23.0556328 8.22000209,23.0556328" id="Fill-25"></path>
                    <path d="M30.194945,12.892118 C30.1392627,10.4129049 29.0235167,9.46549508 27.2112175,9.46549508 C25.1194564,9.46549508 24.310488,10.4401836 24.1161255,12.892118 L30.194945,12.892118 Z M19.7382408,14.3955934 C19.7382408,9.0216918 22.1084131,5.8752 27.182851,5.8752 C31.5061041,5.8752 34.1546875,8.37959344 34.1546875,13.7272656 C34.1546875,14.3683148 34.1273717,15.1761836 34.0433231,15.7584787 L24.1991236,15.7584787 C24.4229031,18.5723803 25.7897445,19.6310033 28.6883727,19.6310033 C30.2789936,19.6310033 31.7571995,19.3519213 33.2070389,18.7958557 L33.6808632,22.2759869 C32.2583396,22.9170361 30.3063094,23.3618885 28.1599167,23.3618885 C22.331142,23.3618885 19.7382408,20.2993311 19.7382408,14.3955934 L19.7382408,14.3955934 Z" id="Fill-27"></path>
                    <path d="M41.7403945,9.41051803 L41.7403945,18.0431738 C41.7403945,19.3525508 42.4096319,19.9096656 43.7481069,19.9096656 C44.1946154,19.9096656 44.7808548,19.8257311 45.0865818,19.714518 L45.3376772,22.8599607 C44.7524884,23.1117639 43.6367424,23.3341902 42.4379983,23.3341902 C39.0634446,23.3341902 37.418192,21.3848131 37.418192,18.1827148 L37.418192,9.41051803 L35.5218441,9.41051803 L35.5218441,6.1800918 L37.6136052,6.1800918 L38.3385249,2.36422295 L41.7403945,2.0578623 L41.7403945,6.1800918 L45.5047239,6.1800918 L45.5047239,9.41051803 L41.7403945,9.41051803 Z" id="Fill-29"></path>
                    <path d="M57.9145088,23.0560525 L57.9145088,12.3061508 C57.9145088,10.5802492 57.0498582,9.68949508 55.2091925,9.68949508 C53.9547662,9.68949508 52.8673867,10.2466098 52.3368295,10.9694951 L52.3368295,23.0560525 L48.0156777,23.0560525 L48.0156777,1.39152787 L52.3368295,1.16805246 L52.3368295,5.01015082 L52.2811473,7.23965902 L52.3651959,7.29421639 C53.6196222,6.23664262 55.1545609,5.84739672 56.5760339,5.84739672 C60.1449502,5.84739672 62.2367112,8.24057705 62.2367112,12.3061508 L62.2367112,23.0560525 L57.9145088,23.0560525 Z" id="Fill-31"></path>
                    <path d="M75.231685,12.892118 C75.1770533,10.4129049 74.0613073,9.46549508 72.2479575,9.46549508 C70.157247,9.46549508 69.3482786,10.4401836 69.1539161,12.892118 L75.231685,12.892118 Z M64.7760314,14.3955934 C64.7760314,9.0216918 67.1462037,5.8752 72.2206417,5.8752 C76.5428441,5.8752 79.1914275,8.37959344 79.1914275,13.7272656 C79.1914275,14.3683148 79.1651623,15.1761836 79.0811137,15.7584787 L69.2369142,15.7584787 C69.4596431,18.5723803 70.8264845,19.6310033 73.7261633,19.6310033 C75.3157336,19.6310033 76.7939395,19.3519213 78.2448295,18.7958557 L78.7186538,22.2759869 C77.2961302,22.9170361 75.3430494,23.3618885 73.1966567,23.3618885 C67.3689327,23.3618885 64.7760314,20.2993311 64.7760314,14.3955934 L64.7760314,14.3955934 Z" id="Fill-33"></path>
                    <path d="M81.8697432,23.0560525 L81.8697432,6.2912 L85.327295,6.12438033 L85.7170707,8.93723279 L85.8011194,8.93723279 C86.8611831,6.90392131 88.5064357,5.90090492 90.4300994,5.90090492 C91.1833855,5.90090492 91.8253072,6.01316721 92.2707651,6.1527082 L91.9923539,10.4123803 C91.4628473,10.2466098 90.8219763,10.1353967 90.1527388,10.1353967 C87.8928804,10.1353967 86.2203121,11.7773639 86.2203121,14.5902164 L86.2203121,23.0560525 L81.8697432,23.0560525 Z" id="Fill-35"></path>
                    <path d="M93.6111311,23.3900066 C91.8545141,23.3900066 91.1001774,22.7216787 91.1001774,20.9674492 C91.1001774,19.4345967 91.8545141,18.5721705 93.6111311,18.5721705 C95.3677482,18.5721705 96.0926679,19.4345967 96.0926679,20.9674492 C96.0926679,22.4709246 95.3677482,23.3900066 93.6111311,23.3900066" id="Fill-37"></path>
                    <path d="M100.358978,23.0560525 L100.358978,6.5419541 L103.007561,6.40241311 L103.007561,23.0560525 L100.358978,23.0560525 Z M101.696402,3.67454426 C100.554391,3.67454426 99.9954675,3.31152787 99.9954675,2.2539541 C99.9954675,1.33487213 100.554391,0.833363934 101.696402,0.833363934 C102.840515,0.833363934 103.398388,1.33487213 103.398388,2.2539541 C103.398388,3.22864262 102.840515,3.67454426 101.696402,3.67454426 L101.696402,3.67454426 Z" id="Fill-39"></path>
                    <path d="M114.665321,21.1902951 C117.871777,21.1902951 119.098888,19.5472787 119.098888,14.8123279 C119.098888,10.0511475 117.871777,8.43645902 114.665321,8.43645902 C111.403182,8.43645902 110.147705,10.0511475 110.147705,14.8123279 C110.147705,19.5756066 111.403182,21.1902951 114.665321,21.1902951 M114.665321,23.4177049 C109.645515,23.4177049 107.415073,20.9678689 107.415073,14.8123279 C107.415073,8.65888525 109.673881,6.17967213 114.665321,6.17967213 C119.683026,6.17967213 121.804204,8.65888525 121.804204,14.8123279 C121.804204,20.9678689 119.65571,23.4177049 114.665321,23.4177049" id="Fill-41"></path>
                </g>
            </g>
        </g>
    </g>
</svg>